<svg xmlns="http://www.w3.org/2000/svg" width="9" height="13.969" viewBox="0 0 9 13.969"><defs><style>.cls-1{fill:#1483f4;fill-rule:evenodd}</style></defs><path id="Фигура_16_копия" data-name="Фигура 16 копия" class="cls-1" d="M1523.87 413.962a1.992 1.992 0 0 1-.19-.12c-1.39-1.34-2.77-2.681-4.16-4.022a1.291 1.291 0 0 1-.01-2.021c.12-.112.24-.224.35-.335a1.394 1.394 0 0 1 2.02 0q1.665 1.608 3.33 3.222l2.34 2.256a1.431 1.431 0 0 1-.01 2.145q-2.8 2.719-5.63 5.44a1.393 1.393 0 0 1-2.08 0l-.36-.348a1.272 1.272 0 0 1 0-1.929q2.1-2.033 4.2-4.061c.06-.051.12-.092.18-.137a.274.274 0 0 0 .02-.09z" transform="translate(-1519.03 -407.031)"/></svg>