<svg xmlns="http://www.w3.org/2000/svg" width="9" height="14.031" viewBox="0 0 9 14.031"><defs><style>.cls-1{fill:#1483f4;fill-rule:evenodd}</style></defs><path id="Фигура_16" data-name="Фигура 16" class="cls-1" d="M395.157 414.054a1.066 1.066 0 0 1 .189.12q2.085 2.014 4.166 4.031a1.293 1.293 0 0 1 0 2.026l-.347.335a1.386 1.386 0 0 1-2.014 0q-1.673-1.611-3.338-3.229l-2.336-2.261a1.443 1.443 0 0 1 0-2.149l5.633-5.453a1.393 1.393 0 0 1 2.081 0l.36.348a1.282 1.282 0 0 1 0 1.935q-2.1 2.036-4.206 4.069a2.185 2.185 0 0 1-.176.138z" transform="translate(-391.031 -407)"/></svg>